<svg id="Icon" xmlns="http://www.w3.org/2000/svg" xmlns:xlink="http://www.w3.org/1999/xlink" width="75.457" height="77.482" viewBox="0 0 75.457 77.482">
  <defs>
    <clipPath id="clip-path">
      <path id="bgicon" d="M60.652,10.232c-18-17.78-33.332-9.694-36,3.852S-2.8,30.335.261,46.335s36.391,6.5,36.391,21,38.537,14,38.537-5S78.652,28.012,60.652,10.232Z" transform="translate(0 0)" fill="rgba(255,255,255,0.2)"/>
    </clipPath>
  </defs>
  <g id="bgicon-2" data-name="bgicon">
    <path id="bgicon-3" data-name="bgicon" d="M60.652,10.232c-18-17.78-33.332-9.694-36,3.852S-2.8,30.335.261,46.335s36.391,6.5,36.391,21,38.537,14,38.537-5S78.652,28.012,60.652,10.232Z" transform="translate(0 0)" fill="rgba(255,255,255,0.2)"/>
    <g id="bgicon-4" data-name="bgicon" clip-path="url(#clip-path)">
      <g id="Color_Blue" data-name="Color/Blue" opacity="0.2">
        <rect id="Rectangle" width="76" height="78" fill="#3e23ff"/>
      </g>
    </g>
  </g>
  <g id="icon_home_desktop" data-name="icon/home/desktop" transform="translate(10 11)">
    <g id="Group_11" data-name="Group 11">
      <path id="Stroke_1" data-name="Stroke 1" d="M28,14A14,14,0,1,1,14,0,14,14,0,0,1,28,14Z" transform="translate(14)" fill="none" stroke="#333" stroke-linecap="round" stroke-linejoin="round" stroke-miterlimit="10" stroke-width="3"/>
      <path id="Stroke_3" data-name="Stroke 3" d="M7.836,2.188A3.2,3.2,0,0,0,4.8,0H3.2a3.2,3.2,0,0,0,0,6.4H4.8a3.2,3.2,0,0,1,0,6.4H3.2A3.2,3.2,0,0,1,.13,10.506" transform="translate(24 7.6)" fill="none" stroke="#3d22fc" stroke-linecap="round" stroke-linejoin="round" stroke-miterlimit="10" stroke-width="3"/>
      <path id="Stroke_7" data-name="Stroke 7" d="M.915.547,1.089,2.54" transform="matrix(0.996, 0.087, -0.087, 0.996, 27.136, 20.375)" fill="none" stroke="#3b21f4" stroke-linecap="round" stroke-linejoin="round" stroke-miterlimit="10" stroke-width="3"/>
      <path id="Stroke_7-2" data-name="Stroke 7" d="M.915.547,1.089,2.54" transform="matrix(0.996, 0.087, -0.087, 0.996, 27.136, 4.415)" fill="none" stroke="#3d22fc" stroke-linecap="round" stroke-linejoin="round" stroke-miterlimit="10" stroke-width="3"/>
      <path id="Stroke_9" data-name="Stroke 9" d="M21.488,12H28a4,4,0,0,0,0-8H18S12,0,8,0,0,4,0,4V22H32L56,8a4,4,0,0,0-5.54-3.692L32,12H16" transform="translate(0 34)" fill="none" stroke="#333" stroke-linecap="round" stroke-linejoin="round" stroke-miterlimit="10" stroke-width="3"/>
    </g>
  </g>
</svg>
