<svg id="Icon" xmlns="http://www.w3.org/2000/svg" xmlns:xlink="http://www.w3.org/1999/xlink" width="75.457" height="77.482" viewBox="0 0 75.457 77.482">
  <defs>
    <clipPath id="clip-path">
      <path id="bgicon" d="M60.652,10.232c-18-17.78-33.332-9.694-36,3.852S-2.8,30.335.261,46.335s36.391,6.5,36.391,21,38.537,14,38.537-5S78.652,28.012,60.652,10.232Z" transform="translate(0 0)" fill="rgba(255,255,255,0.2)"/>
    </clipPath>
  </defs>
  <g id="bgicon-2" data-name="bgicon">
    <path id="bgicon-3" data-name="bgicon" d="M60.652,10.232c-18-17.78-33.332-9.694-36,3.852S-2.8,30.335.261,46.335s36.391,6.5,36.391,21,38.537,14,38.537-5S78.652,28.012,60.652,10.232Z" transform="translate(0 0)" fill="rgba(255,255,255,0.2)"/>
    <g id="bgicon-4" data-name="bgicon" clip-path="url(#clip-path)">
      <g id="Color_Blue" data-name="Color/Blue" opacity="0.2">
        <rect id="Rectangle" width="76" height="78" fill="#3e23ff"/>
      </g>
    </g>
  </g>
  <g id="icon_home_desktop" data-name="icon/home/desktop" transform="translate(10 11)">
    <g id="Group_7" data-name="Group 7">
      <path id="Stroke_1" data-name="Stroke 1" d="M0,22H12V0H0Z" transform="translate(22 34)" fill="none" stroke="#333" stroke-linecap="round" stroke-linejoin="round" stroke-miterlimit="10" stroke-width="3"/>
      <path id="Stroke_3" data-name="Stroke 3" d="M0,14H12V0H0Z" transform="translate(0 42)" fill="none" stroke="#333" stroke-linecap="round" stroke-linejoin="round" stroke-miterlimit="10" stroke-width="3"/>
      <path id="Stroke_4" data-name="Stroke 4" d="M0,34H12V0H0Z" transform="translate(44 22)" fill="none" stroke="#333" stroke-linecap="round" stroke-linejoin="round" stroke-miterlimit="10" stroke-width="3"/>
      <path id="Stroke_5" data-name="Stroke 5" d="M0,0H12V12" transform="translate(44)" fill="none" stroke="#3c21f9" stroke-linecap="round" stroke-linejoin="round" stroke-miterlimit="10" stroke-width="3"/>
      <path id="Stroke_6" data-name="Stroke 6" d="M56,0S34.814,28.892,0,29.968" fill="none" stroke="#3c21f9" stroke-linecap="round" stroke-linejoin="round" stroke-miterlimit="10" stroke-width="3"/>
    </g>
  </g>
</svg>
