<svg xmlns="http://www.w3.org/2000/svg" width="58.2" height="87.3" viewBox="0 0 58.2 87.3">
  <g id="Group_1" data-name="Group 1" transform="translate(34.7 -304.4)">
    <path id="Path_2" data-name="Path 2" d="M52,93.7H46.8A26.546,26.546,0,0,1,20.3,67.2V32.9A26.546,26.546,0,0,1,46.8,6.4H52A26.546,26.546,0,0,1,78.5,32.9V67.2A26.546,26.546,0,0,1,52,93.7ZM46.8,11.4A21.531,21.531,0,0,0,25.3,32.9V67.2A21.531,21.531,0,0,0,46.8,88.7H52A21.531,21.531,0,0,0,73.5,67.2V32.9A21.531,21.531,0,0,0,52,11.4Z" transform="translate(-55 298)" fill="#fff"/>
    <path id="Path_3" data-name="Path 3" d="M61.8,52.7h0a2.416,2.416,0,0,0-3.5,0l-6.4,7V34.3a2.5,2.5,0,0,0-5,0V59.8l-6.4-7a2.416,2.416,0,0,0-3.5,0h0A2.433,2.433,0,0,0,37,56L47.6,67.7a2.416,2.416,0,0,0,3.5,0L61.8,56A2.568,2.568,0,0,0,61.8,52.7Z" transform="translate(-55 298)" fill="#fff"/>
  </g>
</svg>
