<svg id="Icon" xmlns="http://www.w3.org/2000/svg" xmlns:xlink="http://www.w3.org/1999/xlink" width="75.457" height="77.482" viewBox="0 0 75.457 77.482">
  <defs>
    <clipPath id="clip-path">
      <path id="bgicon" d="M60.652,10.232c-18-17.78-33.332-9.694-36,3.852S-2.8,30.335.261,46.335s36.391,6.5,36.391,21,38.537,14,38.537-5S78.652,28.012,60.652,10.232Z" transform="translate(0 0)" fill="rgba(255,255,255,0.2)"/>
    </clipPath>
  </defs>
  <g id="bgicon-2" data-name="bgicon">
    <path id="bgicon-3" data-name="bgicon" d="M60.652,10.232c-18-17.78-33.332-9.694-36,3.852S-2.8,30.335.261,46.335s36.391,6.5,36.391,21,38.537,14,38.537-5S78.652,28.012,60.652,10.232Z" transform="translate(0 0)" fill="rgba(255,255,255,0.2)"/>
    <g id="bgicon-4" data-name="bgicon" clip-path="url(#clip-path)">
      <g id="Color_Blue" data-name="Color/Blue" opacity="0.2">
        <rect id="Rectangle" width="76" height="78" fill="#3e23ff"/>
      </g>
    </g>
  </g>
  <g id="icon_home_desktop" data-name="icon/home/desktop" transform="translate(9 10)">
    <g id="Group_9" data-name="Group 9">
      <path id="Stroke_1" data-name="Stroke 1" d="M54.708,19.568A27.973,27.973,0,1,1,35.9,1.13" transform="translate(0 1.999)" fill="none" stroke="#333" stroke-linecap="round" stroke-linejoin="round" stroke-miterlimit="10" stroke-width="3"/>
      <path id="Stroke_3" data-name="Stroke 3" d="M23.8,9.818A12,12,0,1,1,12,0a12.17,12.17,0,0,1,1.96.158" transform="translate(16 18)" fill="none" stroke="#333" stroke-linecap="round" stroke-linejoin="round" stroke-miterlimit="10" stroke-width="3"/>
      <path id="Stroke_5" data-name="Stroke 5" d="M0,28,28,0" transform="translate(28 2)" fill="none" stroke="#3e23ff" stroke-linecap="round" stroke-linejoin="round" stroke-miterlimit="10" stroke-width="3"/>
      <path id="Stroke_7" data-name="Stroke 7" d="M8,8V0L0,8v8H8l8-8Z" transform="translate(42)" fill="none" stroke="#3e23ff" stroke-linecap="round" stroke-linejoin="round" stroke-miterlimit="10" stroke-width="3"/>
    </g>
  </g>
</svg>
